<svg width="28" height="28" viewBox="0 0 28 28" fill="none" xmlns="http://www.w3.org/2000/svg">
  <path d="M19.5835 13.9415L14.6333 8.99132C14.1778 8.53578 14.1778 7.7972 14.6333 7.34166C15.0889 6.88611 15.8275 6.88611 16.283 7.34166L22.0579 13.1165C22.5135 13.5721 22.5135 14.3108 22.0579 14.7664L16.283 20.5413C15.8275 20.9969 15.0889 20.9969 14.6333 20.5413C14.1778 20.0858 14.1778 19.3472 14.6333 18.8917L19.5835 13.9415Z" fill="#1A1A1A"/>
  <path fill-rule="evenodd" clip-rule="evenodd" d="M4.66669 14C4.66669 13.3557 5.18902 12.8333 5.83335 12.8333H20.4167C21.061 12.8333 21.5834 13.3557 21.5834 14C21.5834 14.6443 21.061 15.1667 20.4167 15.1667H5.83335C5.18902 15.1667 4.66669 14.6443 4.66669 14Z" fill="#1A1A1A"/>
</svg>