<svg width="28" height="28" viewBox="0 0 28 28" fill="none" xmlns="http://www.w3.org/2000/svg">
  <path d="M7.24987 13.9415L12.2 8.99132C12.6556 8.53578 12.6556 7.7972 12.2 7.34166C11.7445 6.88611 11.0059 6.88611 10.5504 7.34166L4.77549 13.1165C4.31988 13.5721 4.31988 14.3108 4.77549 14.7664L10.5504 20.5413C11.0059 20.9969 11.7445 20.9969 12.2 20.5413C12.6556 20.0858 12.6556 19.3472 12.2 18.8917L7.24987 13.9415Z" fill="#1A1A1A"/>
  <path fill-rule="evenodd" clip-rule="evenodd" d="M22.1667 14C22.1667 13.3557 21.6444 12.8333 21 12.8333H6.41669C5.77236 12.8333 5.25002 13.3557 5.25002 14C5.25002 14.6443 5.77236 15.1667 6.41669 15.1667H21C21.6444 15.1667 22.1667 14.6443 22.1667 14Z" fill="#1A1A1A"/>
</svg>