<svg width="24" height="25" viewBox="0 0 24 25" fill="none" xmlns="http://www.w3.org/2000/svg">
  <path d="M21.0006 12.7392C21.0006 12.9381 20.9216 13.1289 20.7809 13.2695C20.6403 13.4102 20.4495 13.4892 20.2506 13.4892H5.5609L11.0312 18.9586C11.1009 19.0282 11.1562 19.111 11.1939 19.202C11.2316 19.2931 11.251 19.3906 11.251 19.4892C11.251 19.5877 11.2316 19.6853 11.1939 19.7764C11.1562 19.8674 11.1009 19.9501 11.0312 20.0198C10.9615 20.0895 10.8788 20.1448 10.7878 20.1825C10.6967 20.2202 10.5991 20.2396 10.5006 20.2396C10.402 20.2396 10.3045 20.2202 10.2134 20.1825C10.1224 20.1448 10.0396 20.0895 9.96996 20.0198L3.21996 13.2698C3.15023 13.2002 3.09491 13.1174 3.05717 13.0264C3.01943 12.9353 3 12.8377 3 12.7392C3 12.6406 3.01943 12.543 3.05717 12.452C3.09491 12.3609 3.15023 12.2782 3.21996 12.2086L9.96996 5.45856C10.1107 5.31783 10.3016 5.23877 10.5006 5.23877C10.6996 5.23877 10.8905 5.31783 11.0312 5.45856C11.1719 5.59929 11.251 5.79016 11.251 5.98919C11.251 6.18821 11.1719 6.37908 11.0312 6.51981L5.5609 11.9892H20.2506C20.4495 11.9892 20.6403 12.0682 20.7809 12.2089C20.9216 12.3495 21.0006 12.5403 21.0006 12.7392Z" fill="#074A68"/>
</svg>