<svg width="452" height="33" viewBox="0 0 452 33" fill="none" xmlns="http://www.w3.org/2000/svg">
<path d="M29.3327 15.0125V16.2392C29.331 19.1144 28.4 21.9121 26.6785 24.2149C24.9569 26.5178 22.5371 28.2025 19.7798 29.0177C17.0226 29.8329 14.0757 29.735 11.3786 28.7386C8.68159 27.7422 6.37889 25.9006 4.81396 23.4886C3.24904 21.0765 2.50574 18.2232 2.69492 15.3542C2.8841 12.4852 3.99563 9.75426 5.86372 7.56859C7.73182 5.38292 10.2564 3.85967 13.0609 3.22602C15.8655 2.59237 18.7997 2.88227 21.426 4.05249M29.3327 5.57249L15.9994 18.9192L11.9994 14.9192" stroke="#074A68" stroke-width="2" stroke-linecap="round" stroke-linejoin="round"/>
<path d="M49.874 8.42726C50.798 8.42726 51.59 8.56659 52.25 8.84526C52.9247 9.10926 53.5773 9.52726 54.208 10.0993L53.438 10.9353C52.866 10.4513 52.3087 10.0993 51.766 9.87926C51.2233 9.65926 50.6073 9.54926 49.918 9.54926C48.9793 9.54926 48.224 9.78392 47.652 10.2533C47.08 10.7079 46.794 11.3239 46.794 12.1013C46.794 12.6293 46.8967 13.0693 47.102 13.4213C47.322 13.7586 47.6813 14.0666 48.18 14.3453C48.6787 14.6093 49.39 14.8806 50.314 15.1593C51.3113 15.4673 52.118 15.7973 52.734 16.1493C53.35 16.5013 53.8267 16.9559 54.164 17.5133C54.5013 18.0706 54.67 18.7746 54.67 19.6253C54.67 20.4759 54.4647 21.2313 54.054 21.8913C53.6433 22.5513 53.0567 23.0646 52.294 23.4313C51.546 23.7979 50.6733 23.9813 49.676 23.9813C47.7987 23.9813 46.1927 23.3506 44.858 22.0893L45.606 21.2533C46.222 21.7813 46.8453 22.1846 47.476 22.4633C48.1067 22.7273 48.8327 22.8593 49.654 22.8593C50.7393 22.8593 51.6193 22.5733 52.294 22.0013C52.9833 21.4293 53.328 20.6519 53.328 19.6693C53.328 19.0533 53.2107 18.5473 52.976 18.1513C52.756 17.7553 52.3893 17.4179 51.876 17.1393C51.3773 16.8459 50.666 16.5526 49.742 16.2593C48.202 15.7899 47.102 15.2473 46.442 14.6313C45.782 14.0153 45.452 13.1793 45.452 12.1233C45.452 11.4193 45.6353 10.7886 46.002 10.2313C46.3833 9.65926 46.904 9.21926 47.564 8.91126C48.2387 8.58859 49.0087 8.42726 49.874 8.42726ZM62.7234 11.9913C64.1167 11.9913 65.158 12.5119 65.8474 13.5533C66.5514 14.5799 66.9034 16.0393 66.9034 17.9313C66.9034 19.7793 66.522 21.2533 65.7594 22.3533C65.0114 23.4386 63.9334 23.9813 62.5254 23.9813C61.836 23.9813 61.2127 23.8419 60.6554 23.5633C60.098 23.2699 59.6287 22.8813 59.2474 22.3973V28.0733L57.9714 28.2493V12.2333H59.0714L59.1814 13.9053C59.6067 13.3039 60.12 12.8346 60.7214 12.4973C61.3374 12.1599 62.0047 11.9913 62.7234 11.9913ZM62.2834 22.9033C63.3394 22.9033 64.146 22.4853 64.7034 21.6493C65.2607 20.8133 65.5394 19.5739 65.5394 17.9313C65.5394 14.6753 64.52 13.0473 62.4814 13.0473C61.792 13.0473 61.1907 13.2233 60.6774 13.5753C60.1787 13.9273 59.702 14.4113 59.2474 15.0273V21.1433C60.01 22.3166 61.022 22.9033 62.2834 22.9033ZM78.6966 17.5573C78.6966 17.8799 78.6819 18.1879 78.6526 18.4813H70.9746C71.0479 19.9773 71.3999 21.0919 72.0306 21.8253C72.6759 22.5439 73.5192 22.9033 74.5606 22.9033C75.1619 22.9033 75.6899 22.8153 76.1446 22.6393C76.6139 22.4486 77.1199 22.1553 77.6626 21.7593L78.2566 22.5733C77.6846 23.0426 77.0979 23.3946 76.4966 23.6293C75.8952 23.8639 75.2279 23.9813 74.4946 23.9813C72.9692 23.9813 71.7739 23.4606 70.9086 22.4193C70.0432 21.3779 69.6106 19.9333 69.6106 18.0853C69.6106 16.8679 69.7939 15.8046 70.1606 14.8953C70.5419 13.9713 71.0772 13.2599 71.7666 12.7613C72.4706 12.2479 73.2846 11.9913 74.2086 11.9913C75.6752 11.9913 76.7899 12.4899 77.5526 13.4873C78.3152 14.4699 78.6966 15.8266 78.6966 17.5573ZM77.4426 17.1613C77.4426 15.8706 77.1712 14.8659 76.6286 14.1473C76.1006 13.4139 75.3086 13.0473 74.2526 13.0473C73.2992 13.0473 72.5292 13.4139 71.9426 14.1473C71.3559 14.8806 71.0332 15.9953 70.9746 17.4913H77.4426V17.1613ZM86.0475 11.9913C86.7075 11.9913 87.2942 12.0866 87.8075 12.2773C88.3208 12.4533 88.8195 12.7466 89.3035 13.1573L88.6655 13.9933C88.2842 13.6853 87.8882 13.4579 87.4775 13.3113C87.0815 13.1646 86.6268 13.0913 86.1135 13.0913C85.0282 13.0913 84.1628 13.5166 83.5175 14.3673C82.8722 15.2033 82.5495 16.4279 82.5495 18.0413C82.5495 19.6399 82.8648 20.8426 83.4955 21.6493C84.1408 22.4559 85.0062 22.8593 86.0915 22.8593C86.6048 22.8593 87.0668 22.7786 87.4775 22.6173C87.9028 22.4559 88.3282 22.2139 88.7535 21.8913L89.3695 22.7493C88.4015 23.5706 87.3015 23.9813 86.0695 23.9813C85.0868 23.9813 84.2288 23.7466 83.4955 23.2773C82.7622 22.8079 82.1902 22.1333 81.7795 21.2533C81.3835 20.3586 81.1855 19.2953 81.1855 18.0633C81.1855 16.8459 81.3835 15.7826 81.7795 14.8733C82.1902 13.9493 82.7622 13.2379 83.4955 12.7393C84.2288 12.2406 85.0795 11.9913 86.0475 11.9913ZM93.478 12.2333V23.7393H92.202V12.2333H93.478ZM92.818 7.17326C93.1113 7.17326 93.346 7.26126 93.522 7.43726C93.698 7.61326 93.786 7.83326 93.786 8.09726C93.786 8.36126 93.698 8.58126 93.522 8.75726C93.346 8.93326 93.1113 9.02126 92.818 9.02126C92.5393 9.02126 92.312 8.93326 92.136 8.75726C91.96 8.58126 91.872 8.36126 91.872 8.09726C91.872 7.83326 91.96 7.61326 92.136 7.43726C92.312 7.26126 92.5393 7.17326 92.818 7.17326ZM105.062 21.1873C105.062 21.7886 105.135 22.2213 105.282 22.4853C105.443 22.7493 105.692 22.9473 106.03 23.0793L105.744 23.9813C105.216 23.8786 104.805 23.6806 104.512 23.3873C104.233 23.0939 104.05 22.6466 103.962 22.0453C103.17 23.3359 101.974 23.9813 100.376 23.9813C99.2757 23.9813 98.403 23.6733 97.7577 23.0573C97.127 22.4266 96.8117 21.5906 96.8117 20.5493C96.8117 19.3613 97.2297 18.4446 98.0657 17.7993C98.9164 17.1539 100.09 16.8313 101.586 16.8313H103.786V15.7093C103.786 14.7853 103.58 14.1179 103.17 13.7073C102.759 13.2819 102.077 13.0693 101.124 13.0693C100.244 13.0693 99.2024 13.2893 97.9997 13.7293L97.6697 12.7613C98.9604 12.2479 100.17 11.9913 101.3 11.9913C103.808 11.9913 105.062 13.2086 105.062 15.6433V21.1873ZM100.596 22.9473C101.974 22.9473 103.038 22.2726 103.786 20.9233V17.7553H101.784C100.61 17.7553 99.7157 17.9826 99.0997 18.4373C98.4837 18.8919 98.1757 19.5739 98.1757 20.4833C98.1757 21.2753 98.3884 21.8839 98.8137 22.3093C99.239 22.7346 99.833 22.9473 100.596 22.9473ZM111.186 23.9813C110.555 23.9813 110.056 23.7979 109.69 23.4313C109.338 23.0646 109.162 22.5219 109.162 21.8033V7.54726L110.438 7.39326V21.7593C110.438 22.5073 110.746 22.8813 111.362 22.8813C111.67 22.8813 111.934 22.8299 112.154 22.7273L112.506 23.6733C112.095 23.8786 111.655 23.9813 111.186 23.9813ZM116.58 12.2333V23.7393H115.304V12.2333H116.58ZM115.92 7.17326C116.213 7.17326 116.448 7.26126 116.624 7.43726C116.8 7.61326 116.888 7.83326 116.888 8.09726C116.888 8.36126 116.8 8.58126 116.624 8.75726C116.448 8.93326 116.213 9.02126 115.92 9.02126C115.641 9.02126 115.414 8.93326 115.238 8.75726C115.062 8.58126 114.974 8.36126 114.974 8.09726C114.974 7.83326 115.062 7.61326 115.238 7.43726C115.414 7.26126 115.641 7.17326 115.92 7.17326ZM127.217 12.2333V13.2233L120.793 22.6393H127.173L127.041 23.7393H119.297V22.7493L125.721 13.3333H119.825V12.2333H127.217ZM138.108 17.5573C138.108 17.8799 138.093 18.1879 138.064 18.4813H130.386C130.459 19.9773 130.811 21.0919 131.442 21.8253C132.087 22.5439 132.93 22.9033 133.972 22.9033C134.573 22.9033 135.101 22.8153 135.556 22.6393C136.025 22.4486 136.531 22.1553 137.074 21.7593L137.668 22.5733C137.096 23.0426 136.509 23.3946 135.908 23.6293C135.306 23.8639 134.639 23.9813 133.906 23.9813C132.38 23.9813 131.185 23.4606 130.32 22.4193C129.454 21.3779 129.022 19.9333 129.022 18.0853C129.022 16.8679 129.205 15.8046 129.572 14.8953C129.953 13.9713 130.488 13.2599 131.178 12.7613C131.882 12.2479 132.696 11.9913 133.62 11.9913C135.086 11.9913 136.201 12.4899 136.964 13.4873C137.726 14.4699 138.108 15.8266 138.108 17.5573ZM136.854 17.1613C136.854 15.8706 136.582 14.8659 136.04 14.1473C135.512 13.4139 134.72 13.0473 133.664 13.0473C132.71 13.0473 131.94 13.4139 131.354 14.1473C130.767 14.8806 130.444 15.9953 130.386 17.4913H136.854V17.1613ZM144.337 11.9913C145.055 11.9913 145.708 12.1013 146.295 12.3213C146.881 12.5266 147.453 12.8419 148.011 13.2673L147.417 14.1033C146.889 13.7366 146.39 13.4726 145.921 13.3113C145.451 13.1353 144.938 13.0473 144.381 13.0473C143.618 13.0473 143.002 13.2233 142.533 13.5753C142.063 13.9273 141.829 14.3966 141.829 14.9833C141.829 15.5406 142.027 15.9733 142.423 16.2813C142.833 16.5893 143.567 16.8826 144.623 17.1613C145.928 17.4986 146.867 17.9239 147.439 18.4373C148.025 18.9506 148.319 19.6839 148.319 20.6373C148.319 21.6639 147.923 22.4779 147.131 23.0793C146.339 23.6806 145.349 23.9813 144.161 23.9813C143.281 23.9813 142.511 23.8566 141.851 23.6073C141.191 23.3433 140.589 22.9766 140.047 22.5073L140.751 21.6933C141.264 22.1039 141.785 22.4119 142.313 22.6173C142.855 22.8079 143.464 22.9033 144.139 22.9033C144.989 22.9033 145.671 22.7126 146.185 22.3313C146.713 21.9353 146.977 21.3926 146.977 20.7033C146.977 20.2339 146.889 19.8526 146.713 19.5593C146.537 19.2659 146.236 19.0166 145.811 18.8113C145.385 18.5913 144.762 18.3713 143.941 18.1513C142.723 17.8286 141.843 17.4253 141.301 16.9413C140.773 16.4573 140.509 15.8119 140.509 15.0053C140.509 14.4333 140.677 13.9199 141.015 13.4653C141.352 12.9959 141.807 12.6366 142.379 12.3873C142.965 12.1233 143.618 11.9913 144.337 11.9913ZM158.706 12.2333V23.7393H157.43V12.2333H158.706ZM158.046 7.17326C158.34 7.17326 158.574 7.26126 158.75 7.43726C158.926 7.61326 159.014 7.83326 159.014 8.09726C159.014 8.36126 158.926 8.58126 158.75 8.75726C158.574 8.93326 158.34 9.02126 158.046 9.02126C157.768 9.02126 157.54 8.93326 157.364 8.75726C157.188 8.58126 157.1 8.36126 157.1 8.09726C157.1 7.83326 157.188 7.61326 157.364 7.43726C157.54 7.26126 157.768 7.17326 158.046 7.17326ZM168.222 11.9913C169.263 11.9913 170.055 12.2993 170.598 12.9153C171.155 13.5313 171.434 14.3966 171.434 15.5113V23.7393H170.158V15.6873C170.158 14.7633 169.975 14.0886 169.608 13.6633C169.241 13.2379 168.699 13.0253 167.98 13.0253C167.247 13.0253 166.594 13.2306 166.022 13.6413C165.465 14.0373 164.929 14.6239 164.416 15.4013V23.7393H163.14V12.2333H164.24L164.372 14.1913C164.841 13.5019 165.399 12.9666 166.044 12.5853C166.689 12.1893 167.415 11.9913 168.222 11.9913ZM188.842 21.1873C188.842 21.7886 188.915 22.2213 189.062 22.4853C189.223 22.7493 189.473 22.9473 189.81 23.0793L189.524 23.9813C188.996 23.8786 188.585 23.6806 188.292 23.3873C188.013 23.0939 187.83 22.6466 187.742 22.0453C186.95 23.3359 185.755 23.9813 184.156 23.9813C183.056 23.9813 182.183 23.6733 181.538 23.0573C180.907 22.4266 180.592 21.5906 180.592 20.5493C180.592 19.3613 181.01 18.4446 181.846 17.7993C182.697 17.1539 183.87 16.8313 185.366 16.8313H187.566V15.7093C187.566 14.7853 187.361 14.1179 186.95 13.7073C186.539 13.2819 185.857 13.0693 184.904 13.0693C184.024 13.0693 182.983 13.2893 181.78 13.7293L181.45 12.7613C182.741 12.2479 183.951 11.9913 185.08 11.9913C187.588 11.9913 188.842 13.2086 188.842 15.6433V21.1873ZM184.376 22.9473C185.755 22.9473 186.818 22.2726 187.566 20.9233V17.7553H185.564C184.391 17.7553 183.496 17.9826 182.88 18.4373C182.264 18.8919 181.956 19.5739 181.956 20.4833C181.956 21.2753 182.169 21.8839 182.594 22.3093C183.019 22.7346 183.613 22.9473 184.376 22.9473ZM198.349 11.9913C199.39 11.9913 200.182 12.2993 200.725 12.9153C201.282 13.5313 201.561 14.3966 201.561 15.5113V23.7393H200.285V15.6873C200.285 14.7633 200.102 14.0886 199.735 13.6633C199.368 13.2379 198.826 13.0253 198.107 13.0253C197.374 13.0253 196.721 13.2306 196.149 13.6413C195.592 14.0373 195.056 14.6239 194.543 15.4013V23.7393H193.267V12.2333H194.367L194.499 14.1913C194.968 13.5019 195.526 12.9666 196.171 12.5853C196.816 12.1893 197.542 11.9913 198.349 11.9913ZM209.371 17.5793L213.419 23.7393H211.879L208.557 18.3933L205.257 23.7393H203.783L207.831 17.6233L204.311 12.2333H205.807L208.623 16.8313L211.461 12.2333H212.913L209.371 17.5793ZM217.048 12.2333V23.7393H215.772V12.2333H217.048ZM216.388 7.17326C216.682 7.17326 216.916 7.26126 217.092 7.43726C217.268 7.61326 217.356 7.83326 217.356 8.09726C217.356 8.36126 217.268 8.58126 217.092 8.75726C216.916 8.93326 216.682 9.02126 216.388 9.02126C216.11 9.02126 215.882 8.93326 215.706 8.75726C215.53 8.58126 215.442 8.36126 215.442 8.09726C215.442 7.83326 215.53 7.61326 215.706 7.43726C215.882 7.26126 216.11 7.17326 216.388 7.17326ZM229.644 17.5573C229.644 17.8799 229.629 18.1879 229.6 18.4813H221.922C221.995 19.9773 222.347 21.0919 222.978 21.8253C223.623 22.5439 224.467 22.9033 225.508 22.9033C226.109 22.9033 226.637 22.8153 227.092 22.6393C227.561 22.4486 228.067 22.1553 228.61 21.7593L229.204 22.5733C228.632 23.0426 228.045 23.3946 227.444 23.6293C226.843 23.8639 226.175 23.9813 225.442 23.9813C223.917 23.9813 222.721 23.4606 221.856 22.4193C220.991 21.3779 220.558 19.9333 220.558 18.0853C220.558 16.8679 220.741 15.8046 221.108 14.8953C221.489 13.9713 222.025 13.2599 222.714 12.7613C223.418 12.2479 224.232 11.9913 225.156 11.9913C226.623 11.9913 227.737 12.4899 228.5 13.4873C229.263 14.4699 229.644 15.8266 229.644 17.5573ZM228.39 17.1613C228.39 15.8706 228.119 14.8659 227.576 14.1473C227.048 13.4139 226.256 13.0473 225.2 13.0473C224.247 13.0473 223.477 13.4139 222.89 14.1473C222.303 14.8806 221.981 15.9953 221.922 17.4913H228.39V17.1613ZM238.293 23.2553C237.56 23.7393 236.753 23.9813 235.873 23.9813C234.993 23.9813 234.304 23.7246 233.805 23.2113C233.306 22.6833 233.057 21.9279 233.057 20.9453V13.2673H231.121V12.2333H233.057V9.48326L234.333 9.32926V12.2333H237.303L237.149 13.2673H234.333V20.8793C234.333 21.5539 234.472 22.0599 234.751 22.3973C235.03 22.7199 235.455 22.8813 236.027 22.8813C236.614 22.8813 237.2 22.7126 237.787 22.3753L238.293 23.2553ZM243.902 23.7833C243.594 24.6779 243.256 25.4113 242.89 25.9833C242.523 26.5553 242.046 27.0246 241.46 27.3913C240.873 27.7726 240.118 28.0513 239.194 28.2273L239.062 27.2373C239.824 27.0466 240.418 26.8119 240.844 26.5333C241.284 26.2546 241.628 25.9026 241.878 25.4773C242.142 25.0666 242.406 24.4873 242.67 23.7393H242.23L238.226 12.2333H239.612L243.088 22.7933L246.498 12.2333H247.84L243.902 23.7833ZM267.443 11.9913C268.367 11.9913 269.093 12.3066 269.621 12.9373C270.164 13.5679 270.435 14.4259 270.435 15.5113V23.7393H269.159V15.6873C269.159 14.7779 268.983 14.1106 268.631 13.6853C268.294 13.2453 267.817 13.0253 267.201 13.0253C266.556 13.0253 265.977 13.2306 265.463 13.6413C264.95 14.0519 264.451 14.6386 263.967 15.4013V23.7393H262.691V15.6873C262.691 14.7779 262.515 14.1106 262.163 13.6853C261.826 13.2453 261.349 13.0253 260.733 13.0253C260.073 13.0253 259.487 13.2306 258.973 13.6413C258.46 14.0519 257.969 14.6386 257.499 15.4013V23.7393H256.223V12.2333H257.323L257.433 14.1913C257.873 13.5019 258.394 12.9666 258.995 12.5853C259.597 12.1893 260.257 11.9913 260.975 11.9913C261.709 11.9913 262.325 12.1966 262.823 12.6073C263.322 13.0033 263.659 13.5606 263.835 14.2793C264.29 13.5606 264.818 13.0033 265.419 12.6073C266.035 12.1966 266.71 11.9913 267.443 11.9913ZM281.909 21.1873C281.909 21.7886 281.982 22.2213 282.129 22.4853C282.29 22.7493 282.54 22.9473 282.877 23.0793L282.591 23.9813C282.063 23.8786 281.652 23.6806 281.359 23.3873C281.08 23.0939 280.897 22.6466 280.809 22.0453C280.017 23.3359 278.822 23.9813 277.223 23.9813C276.123 23.9813 275.25 23.6733 274.605 23.0573C273.974 22.4266 273.659 21.5906 273.659 20.5493C273.659 19.3613 274.077 18.4446 274.913 17.7993C275.764 17.1539 276.937 16.8313 278.433 16.8313H280.633V15.7093C280.633 14.7853 280.428 14.1179 280.017 13.7073C279.606 13.2819 278.924 13.0693 277.971 13.0693C277.091 13.0693 276.05 13.2893 274.847 13.7293L274.517 12.7613C275.808 12.2479 277.018 11.9913 278.147 11.9913C280.655 11.9913 281.909 13.2086 281.909 15.6433V21.1873ZM277.443 22.9473C278.822 22.9473 279.885 22.2726 280.633 20.9233V17.7553H278.631C277.458 17.7553 276.563 17.9826 275.947 18.4373C275.331 18.8919 275.023 19.5739 275.023 20.4833C275.023 21.2753 275.236 21.8839 275.661 22.3093C276.086 22.7346 276.68 22.9473 277.443 22.9473ZM291.416 11.9913C292.457 11.9913 293.249 12.2993 293.792 12.9153C294.349 13.5313 294.628 14.3966 294.628 15.5113V23.7393H293.352V15.6873C293.352 14.7633 293.169 14.0886 292.802 13.6633C292.435 13.2379 291.893 13.0253 291.174 13.0253C290.441 13.0253 289.788 13.2306 289.216 13.6413C288.659 14.0373 288.123 14.6239 287.61 15.4013V23.7393H286.334V12.2333H287.434L287.566 14.1913C288.035 13.5019 288.593 12.9666 289.238 12.5853C289.883 12.1893 290.609 11.9913 291.416 11.9913ZM306.112 21.1873C306.112 21.7886 306.185 22.2213 306.332 22.4853C306.493 22.7493 306.742 22.9473 307.08 23.0793L306.794 23.9813C306.266 23.8786 305.855 23.6806 305.562 23.3873C305.283 23.0939 305.1 22.6466 305.012 22.0453C304.22 23.3359 303.024 23.9813 301.426 23.9813C300.326 23.9813 299.453 23.6733 298.808 23.0573C298.177 22.4266 297.862 21.5906 297.862 20.5493C297.862 19.3613 298.28 18.4446 299.116 17.7993C299.966 17.1539 301.14 16.8313 302.636 16.8313H304.836V15.7093C304.836 14.7853 304.63 14.1179 304.22 13.7073C303.809 13.2819 303.127 13.0693 302.174 13.0693C301.294 13.0693 300.252 13.2893 299.05 13.7293L298.72 12.7613C300.01 12.2479 301.22 11.9913 302.35 11.9913C304.858 11.9913 306.112 13.2086 306.112 15.6433V21.1873ZM301.646 22.9473C303.024 22.9473 304.088 22.2726 304.836 20.9233V17.7553H302.834C301.66 17.7553 300.766 17.9826 300.15 18.4373C299.534 18.8919 299.226 19.5739 299.226 20.4833C299.226 21.2753 299.438 21.8839 299.864 22.3093C300.289 22.7346 300.883 22.9473 301.646 22.9473ZM318.88 12.4753C318.176 12.6659 317.112 12.7759 315.69 12.8053C316.995 13.4213 317.648 14.4626 317.648 15.9293C317.648 17.0586 317.274 17.9753 316.526 18.6793C315.778 19.3686 314.766 19.7133 313.49 19.7133C312.918 19.7133 312.419 19.6399 311.994 19.4933C311.715 19.6546 311.495 19.8526 311.334 20.0873C311.187 20.3073 311.114 20.5493 311.114 20.8133C311.114 21.6053 311.722 22.0013 312.94 22.0013H314.81C315.939 22.0013 316.834 22.2799 317.494 22.8373C318.168 23.3799 318.506 24.0839 318.506 24.9493C318.506 26.0053 318.088 26.8193 317.252 27.3913C316.416 27.9633 315.169 28.2493 313.512 28.2493C311.796 28.2493 310.564 27.9853 309.816 27.4573C309.082 26.9439 308.716 26.1079 308.716 24.9493H309.904C309.918 25.5066 310.036 25.9466 310.256 26.2693C310.476 26.5919 310.842 26.8266 311.356 26.9733C311.869 27.1199 312.588 27.1933 313.512 27.1933C314.802 27.1933 315.741 27.0026 316.328 26.6213C316.914 26.2546 317.208 25.7193 317.208 25.0153C317.208 24.3993 316.98 23.9299 316.526 23.6073C316.071 23.2699 315.433 23.1013 314.612 23.1013H312.742C311.832 23.1013 311.128 22.9106 310.63 22.5293C310.146 22.1479 309.904 21.6639 309.904 21.0773C309.904 20.6959 310.014 20.3366 310.234 19.9993C310.454 19.6619 310.762 19.3686 311.158 19.1193C310.498 18.7819 310.006 18.3493 309.684 17.8213C309.376 17.2933 309.222 16.6479 309.222 15.8853C309.222 14.7266 309.61 13.7879 310.388 13.0693C311.165 12.3506 312.184 11.9913 313.446 11.9913C314.839 12.0059 315.851 11.9546 316.482 11.8373C317.127 11.7199 317.794 11.5219 318.484 11.2433L318.88 12.4753ZM313.446 12.9813C312.492 12.9813 311.766 13.2453 311.268 13.7733C310.784 14.3013 310.542 15.0053 310.542 15.8853C310.542 16.7946 310.798 17.5059 311.312 18.0193C311.84 18.5326 312.551 18.7893 313.446 18.7893C314.384 18.7893 315.103 18.5399 315.602 18.0413C316.1 17.5279 316.35 16.8166 316.35 15.9073C316.35 14.9833 316.1 14.2646 315.602 13.7513C315.118 13.2379 314.399 12.9813 313.446 12.9813ZM329.049 17.5573C329.049 17.8799 329.034 18.1879 329.005 18.4813H321.327C321.4 19.9773 321.752 21.0919 322.383 21.8253C323.028 22.5439 323.872 22.9033 324.913 22.9033C325.514 22.9033 326.042 22.8153 326.497 22.6393C326.966 22.4486 327.472 22.1553 328.015 21.7593L328.609 22.5733C328.037 23.0426 327.45 23.3946 326.849 23.6293C326.248 23.8639 325.58 23.9813 324.847 23.9813C323.322 23.9813 322.126 23.4606 321.261 22.4193C320.396 21.3779 319.963 19.9333 319.963 18.0853C319.963 16.8679 320.146 15.8046 320.513 14.8953C320.894 13.9713 321.43 13.2599 322.119 12.7613C322.823 12.2479 323.637 11.9913 324.561 11.9913C326.028 11.9913 327.142 12.4899 327.905 13.4873C328.668 14.4699 329.049 15.8266 329.049 17.5573ZM327.795 17.1613C327.795 15.8706 327.524 14.8659 326.981 14.1473C326.453 13.4139 325.661 13.0473 324.605 13.0473C323.652 13.0473 322.882 13.4139 322.295 14.1473C321.708 14.8806 321.386 15.9953 321.327 17.4913H327.795V17.1613ZM343.682 11.9913C344.606 11.9913 345.332 12.3066 345.86 12.9373C346.402 13.5679 346.674 14.4259 346.674 15.5113V23.7393H345.398V15.6873C345.398 14.7779 345.222 14.1106 344.87 13.6853C344.532 13.2453 344.056 13.0253 343.44 13.0253C342.794 13.0253 342.215 13.2306 341.702 13.6413C341.188 14.0519 340.69 14.6386 340.206 15.4013V23.7393H338.93V15.6873C338.93 14.7779 338.754 14.1106 338.402 13.6853C338.064 13.2453 337.588 13.0253 336.972 13.0253C336.312 13.0253 335.725 13.2306 335.212 13.6413C334.698 14.0519 334.207 14.6386 333.738 15.4013V23.7393H332.462V12.2333H333.562L333.672 14.1913C334.112 13.5019 334.632 12.9666 335.234 12.5853C335.835 12.1893 336.495 11.9913 337.214 11.9913C337.947 11.9913 338.563 12.1966 339.062 12.6073C339.56 13.0033 339.898 13.5606 340.074 14.2793C340.528 13.5606 341.056 13.0033 341.658 12.6073C342.274 12.1966 342.948 11.9913 343.682 11.9913ZM359.16 17.5573C359.16 17.8799 359.145 18.1879 359.116 18.4813H351.438C351.511 19.9773 351.863 21.0919 352.494 21.8253C353.139 22.5439 353.982 22.9033 355.024 22.9033C355.625 22.9033 356.153 22.8153 356.608 22.6393C357.077 22.4486 357.583 22.1553 358.126 21.7593L358.72 22.5733C358.148 23.0426 357.561 23.3946 356.96 23.6293C356.358 23.8639 355.691 23.9813 354.958 23.9813C353.432 23.9813 352.237 23.4606 351.372 22.4193C350.506 21.3779 350.074 19.9333 350.074 18.0853C350.074 16.8679 350.257 15.8046 350.624 14.8953C351.005 13.9713 351.54 13.2599 352.23 12.7613C352.934 12.2479 353.748 11.9913 354.672 11.9913C356.138 11.9913 357.253 12.4899 358.016 13.4873C358.778 14.4699 359.16 15.8266 359.16 17.5573ZM357.906 17.1613C357.906 15.8706 357.634 14.8659 357.092 14.1473C356.564 13.4139 355.772 13.0473 354.716 13.0473C353.762 13.0473 352.992 13.4139 352.406 14.1473C351.819 14.8806 351.496 15.9953 351.438 17.4913H357.906V17.1613ZM367.655 11.9913C368.696 11.9913 369.488 12.2993 370.031 12.9153C370.588 13.5313 370.867 14.3966 370.867 15.5113V23.7393H369.591V15.6873C369.591 14.7633 369.407 14.0886 369.041 13.6633C368.674 13.2379 368.131 13.0253 367.413 13.0253C366.679 13.0253 366.027 13.2306 365.455 13.6413C364.897 14.0373 364.362 14.6239 363.849 15.4013V23.7393H362.573V12.2333H363.673L363.805 14.1913C364.274 13.5019 364.831 12.9666 365.477 12.5853C366.122 12.1893 366.848 11.9913 367.655 11.9913ZM380.436 23.2553C379.703 23.7393 378.896 23.9813 378.016 23.9813C377.136 23.9813 376.447 23.7246 375.948 23.2113C375.45 22.6833 375.2 21.9279 375.2 20.9453V13.2673H373.264V12.2333H375.2V9.48326L376.476 9.32926V12.2333H379.446L379.292 13.2673H376.476V20.8793C376.476 21.5539 376.616 22.0599 376.894 22.3973C377.173 22.7199 377.598 22.8813 378.17 22.8813C378.757 22.8813 379.344 22.7126 379.93 22.3753L380.436 23.2553Z" fill="#074A68"/>
</svg>
