<svg width="25" height="24" viewBox="0 0 25 24" fill="none" xmlns="http://www.w3.org/2000/svg">
  <path d="M16.5555 3.5C15.7362 3.5 14.9281 3.69202 14.1952 4.06085C13.4624 4.42969 12.8249 4.9652 12.3333 5.62499C11.6687 4.73299 10.7421 4.0741 9.68469 3.74165C8.62736 3.40919 7.49292 3.42003 6.44205 3.77262C5.39118 4.12521 4.47716 4.80168 3.82947 5.70621C3.18178 6.61074 2.83325 7.69747 2.83325 8.81247C2.83325 15.1786 11.6208 20.1989 11.9902 20.4114C12.0949 20.4706 12.2132 20.5011 12.3333 20.4999C12.4535 20.502 12.572 20.4714 12.6764 20.4114C14.2946 19.4591 15.8124 18.3436 17.2064 17.0822C20.2764 14.302 21.8333 11.5218 21.8333 8.81247C21.8333 7.40351 21.2773 6.05227 20.2875 5.05599C19.2977 4.0597 17.9553 3.5 16.5555 3.5Z" fill="#1A1A1A"/>
</svg>