<svg width="24" height="25" viewBox="0 0 24 25" fill="none" xmlns="http://www.w3.org/2000/svg">
  <path d="M20.9996 12.7392C20.9996 12.9381 20.9206 13.1289 20.7799 13.2695C20.6393 13.4102 20.4485 13.4892 20.2496 13.4892H5.55993L11.0302 18.9586C11.0999 19.0282 11.1552 19.111 11.1929 19.202C11.2306 19.2931 11.25 19.3906 11.25 19.4892C11.25 19.5877 11.2306 19.6853 11.1929 19.7764C11.1552 19.8674 11.0999 19.9501 11.0302 20.0198C10.9606 20.0895 10.8778 20.1448 10.7868 20.1825C10.6957 20.2202 10.5982 20.2396 10.4996 20.2396C10.4011 20.2396 10.3035 20.2202 10.2124 20.1825C10.1214 20.1448 10.0387 20.0895 9.96899 20.0198L3.21899 13.2698C3.14926 13.2002 3.09394 13.1174 3.05619 13.0264C3.01845 12.9353 2.99902 12.8377 2.99902 12.7392C2.99902 12.6406 3.01845 12.543 3.05619 12.452C3.09394 12.3609 3.14926 12.2782 3.21899 12.2086L9.96899 5.45856C10.1097 5.31783 10.3006 5.23877 10.4996 5.23877C10.6986 5.23877 10.8895 5.31783 11.0302 5.45856C11.171 5.59929 11.25 5.79016 11.25 5.98919C11.25 6.18821 11.171 6.37908 11.0302 6.51981L5.55993 11.9892H20.2496C20.4485 11.9892 20.6393 12.0682 20.7799 12.2089C20.9206 12.3495 20.9996 12.5403 20.9996 12.7392Z" fill="#074A68"/>
</svg>