<svg width="24" height="25" viewBox="0 0 24 25" fill="none" xmlns="http://www.w3.org/2000/svg">
  <path d="M20.7806 13.2698L14.0306 20.0198C13.8899 20.1605 13.699 20.2396 13.5 20.2396C13.301 20.2396 13.1101 20.1605 12.9694 20.0198C12.8286 19.8791 12.7496 19.6882 12.7496 19.4892C12.7496 19.2902 12.8286 19.0993 12.9694 18.9586L18.4397 13.4892H3.75C3.55109 13.4892 3.36032 13.4102 3.21967 13.2695C3.07902 13.1289 3 12.9381 3 12.7392C3 12.5403 3.07902 12.3495 3.21967 12.2089C3.36032 12.0682 3.55109 11.9892 3.75 11.9892H18.4397L12.9694 6.51981C12.8286 6.37908 12.7496 6.18821 12.7496 5.98919C12.7496 5.79016 12.8286 5.59929 12.9694 5.45856C13.1101 5.31783 13.301 5.23877 13.5 5.23877C13.699 5.23877 13.8899 5.31783 14.0306 5.45856L20.7806 12.2086C20.8504 12.2782 20.9057 12.3609 20.9434 12.452C20.9812 12.543 21.0006 12.6406 21.0006 12.7392C21.0006 12.8377 20.9812 12.9353 20.9434 13.0264C20.9057 13.1174 20.8504 13.2002 20.7806 13.2698Z" fill="#FFFDF7"/>
</svg>