<svg width="18" height="19" viewBox="0 0 18 19" fill="none" xmlns="http://www.w3.org/2000/svg">
  <path fill-rule="evenodd" clip-rule="evenodd" d="M13 0.239258H5C2.23858 0.239258 0 2.47784 0 5.23926V13.2393C0 16.0007 2.23858 18.2393 5 18.2393H13C15.7614 18.2393 18 16.0007 18 13.2393V5.23926C18 2.47784 15.7614 0.239258 13 0.239258ZM16.25 13.2393C16.2445 15.0319 14.7926 16.4838 13 16.4893H5C3.20735 16.4838 1.75549 15.0319 1.75 13.2393V5.23926C1.75549 3.44661 3.20735 1.99475 5 1.98926H13C14.7926 1.99475 16.2445 3.44661 16.25 5.23926V13.2393ZM13.75 5.48926C14.3023 5.48926 14.75 5.04154 14.75 4.48926C14.75 3.93698 14.3023 3.48926 13.75 3.48926C13.1977 3.48926 12.75 3.93698 12.75 4.48926C12.75 5.04154 13.1977 5.48926 13.75 5.48926ZM9 4.73926C6.51472 4.73926 4.5 6.75398 4.5 9.23926C4.5 11.7246 6.51472 13.7393 9 13.7393C11.4853 13.7393 13.5 11.7246 13.5 9.23926C13.5027 8.04496 13.0294 6.89883 12.1849 6.05434C11.3404 5.20985 10.1943 4.7366 9 4.73926ZM6.25 9.23926C6.25 10.7581 7.4812 11.9893 9 11.9893C10.5188 11.9893 11.75 10.7581 11.75 9.23926C11.75 7.72046 10.5188 6.48926 9 6.48926C7.4812 6.48926 6.25 7.72046 6.25 9.23926Z" fill="#074A68"/>
</svg>