<svg width="28" height="29" viewBox="0 0 28 29" fill="none" xmlns="http://www.w3.org/2000/svg">
  <path d="M26.4002 9.61832C26.3862 8.5686 26.1897 7.52931 25.8194 6.54694C25.4984 5.71833 25.008 4.96579 24.3796 4.33743C23.7513 3.70906 22.9987 3.21867 22.1701 2.89761C21.2004 2.53358 20.1759 2.33675 19.1403 2.31549C17.807 2.25589 17.3843 2.23926 13.9996 2.23926C10.615 2.23926 10.1812 2.23926 8.85758 2.31549C7.82246 2.33691 6.79847 2.53374 5.82917 2.89761C5.00042 3.21845 4.24778 3.70875 3.61938 4.33715C2.99098 4.96555 2.50068 5.7182 2.17983 6.54694C1.81508 7.51594 1.61868 8.54017 1.5991 9.57535C1.5395 10.9101 1.52148 11.3328 1.52148 14.7174C1.52148 18.102 1.52148 18.5345 1.5991 19.8595C1.61989 20.8962 1.81532 21.9191 2.17983 22.8907C2.50122 23.7192 2.99189 24.4715 3.62049 25.0996C4.2491 25.7278 5.00182 26.2179 5.83056 26.5386C6.7972 26.9173 7.82137 27.1282 8.85897 27.1623C10.1937 27.2219 10.6164 27.2399 14.001 27.2399C17.3856 27.2399 17.8195 27.2399 19.1431 27.1623C20.1786 27.1419 21.2032 26.9455 22.1729 26.5816C23.0013 26.2601 23.7536 25.7696 24.3819 25.1413C25.0103 24.513 25.5008 23.7606 25.8222 22.9322C26.1867 21.962 26.3822 20.9392 26.403 19.9011C26.4626 18.5677 26.4806 18.145 26.4806 14.759C26.4778 11.3744 26.4778 10.9447 26.4002 9.61832ZM13.9913 21.118C10.4515 21.118 7.58385 18.2503 7.58385 14.7105C7.58385 11.1706 10.4515 8.30301 13.9913 8.30301C15.6907 8.30301 17.3205 8.97808 18.5221 10.1797C19.7237 11.3813 20.3988 13.0111 20.3988 14.7105C20.3988 16.4099 19.7237 18.0396 18.5221 19.2413C17.3205 20.4429 15.6907 21.118 13.9913 21.118ZM20.6538 9.56011C20.4576 9.56029 20.2632 9.52177 20.0818 9.44675C19.9005 9.37173 19.7357 9.26168 19.5969 9.1229C19.4582 8.98412 19.3481 8.81934 19.2731 8.63799C19.1981 8.45663 19.1595 8.26226 19.1597 8.066C19.1597 7.86988 19.1983 7.67568 19.2734 7.4945C19.3484 7.31331 19.4585 7.14867 19.5971 7.01C19.7358 6.87132 19.9004 6.76132 20.0816 6.68626C20.2628 6.61121 20.457 6.57259 20.6531 6.57259C20.8493 6.57259 21.0434 6.61121 21.2246 6.68626C21.4058 6.76132 21.5705 6.87132 21.7091 7.01C21.8478 7.14867 21.9578 7.31331 22.0329 7.4945C22.1079 7.67568 22.1465 7.86988 22.1465 8.066C22.1465 8.89206 21.4785 9.56011 20.6538 9.56011Z" fill="#074A68"/>
  <path d="M13.9912 18.8721C16.2899 18.8721 18.1534 17.0087 18.1534 14.71C18.1534 12.4113 16.2899 10.5479 13.9912 10.5479C11.6925 10.5479 9.8291 12.4113 9.8291 14.71C9.8291 17.0087 11.6925 18.8721 13.9912 18.8721Z" fill="#074A68"/>
</svg>