<svg width="18" height="19" viewBox="0 0 18 19" fill="none" xmlns="http://www.w3.org/2000/svg">
  <path fill-rule="evenodd" clip-rule="evenodd" d="M1.5 0.239258C0.67157 0.239258 0 0.910828 0 1.73926V16.7393C0 17.5677 0.67157 18.2393 1.5 18.2393H16.5C17.3284 18.2393 18 17.5677 18 16.7393V1.73926C18 0.910828 17.3284 0.239258 16.5 0.239258H1.5ZM5.52076 4.24198C5.52639 5.19823 4.81061 5.78745 3.96123 5.78323C3.16107 5.77901 2.46357 5.14198 2.46779 4.24339C2.47201 3.39823 3.13998 2.71901 4.00764 2.7387C4.88795 2.75839 5.52639 3.40386 5.52076 4.24198ZM9.2797 7.00102H6.75971H6.7583V15.5609H9.4217V15.3612C9.4217 14.9813 9.4214 14.6013 9.4211 14.2212C9.4203 13.2074 9.4194 12.1925 9.4246 11.179C9.426 10.9329 9.4372 10.677 9.5005 10.4421C9.7381 9.56456 10.5271 8.99786 11.4074 9.13716C11.9727 9.22566 12.3467 9.55336 12.5042 10.0864C12.6013 10.4196 12.6449 10.7782 12.6491 11.1256C12.6605 12.1732 12.6589 13.2208 12.6573 14.2685C12.6567 14.6383 12.6561 15.0083 12.6561 15.3781V15.5595H15.328V15.3542C15.328 14.9022 15.3278 14.4503 15.3275 13.9984C15.327 12.8689 15.3264 11.7394 15.3294 10.6095C15.3308 10.099 15.276 9.59556 15.1508 9.10196C14.9638 8.36786 14.5771 7.76036 13.9485 7.32166C13.5027 7.00945 13.0133 6.80836 12.4663 6.78586C12.404 6.78327 12.3412 6.77988 12.2781 6.77647C11.9984 6.76135 11.7141 6.74599 11.4467 6.79992C10.6817 6.9532 10.0096 7.30336 9.5019 7.92066C9.4429 7.99146 9.3852 8.06336 9.2991 8.17066L9.2797 8.19496V7.00102ZM2.68164 15.5637H5.33242V7.00659H2.68164V15.5637Z" fill="#074A68"/>
</svg>