<svg width="20" height="21" viewBox="0 0 20 21" fill="none" xmlns="http://www.w3.org/2000/svg">
  <path d="M7.04 19.7793C8 20.0693 8.97 20.2393 10 20.2393C12.6522 20.2393 15.1957 19.1857 17.0711 17.3103C18.9464 15.435 20 12.8914 20 10.2393C20 8.92604 19.7413 7.62568 19.2388 6.41242C18.7362 5.19917 17.9997 4.09678 17.0711 3.16819C16.1425 2.2396 15.0401 1.50301 13.8268 1.00046C12.6136 0.497916 11.3132 0.239258 10 0.239258C8.68678 0.239258 7.38642 0.497916 6.17317 1.00046C4.95991 1.50301 3.85752 2.2396 2.92893 3.16819C1.05357 5.04355 0 7.58709 0 10.2393C0 14.4893 2.67 18.1393 6.44 19.5793C6.35 18.7993 6.26 17.5093 6.44 16.6193L7.59 11.6793C7.59 11.6793 7.3 11.0993 7.3 10.1793C7.3 8.79926 8.16 7.76926 9.14 7.76926C10 7.76926 10.4 8.39926 10.4 9.20926C10.4 10.0693 9.83 11.2993 9.54 12.4793C9.37 13.4593 10.06 14.3193 11.06 14.3193C12.84 14.3193 14.22 12.4193 14.22 9.73926C14.22 7.33926 12.5 5.69926 10.03 5.69926C7.21 5.69926 5.55 7.79926 5.55 10.0093C5.55 10.8693 5.83 11.7393 6.29 12.3093C6.38 12.3693 6.38 12.4493 6.35 12.5993L6.06 13.6893C6.06 13.8593 5.95 13.9193 5.78 13.7993C4.5 13.2393 3.76 11.4193 3.76 9.94926C3.76 6.78926 6 3.91926 10.32 3.91926C13.76 3.91926 16.44 6.38926 16.44 9.66926C16.44 13.1093 14.31 15.8693 11.26 15.8693C10.29 15.8693 9.34 15.3493 9 14.7393L8.33 17.1093C8.1 17.9693 7.47 19.1193 7.04 19.8093V19.7793Z" fill="#074A68"/>
</svg>